<?xml version="1.0" encoding="utf-8"?><svg xmlns="http://www.w3.org/2000/svg" xmlns:xlink="http://www.w3.org/1999/xlink"><symbol viewBox="0 0 15 11" id="checkbox" xmlns="http://www.w3.org/2000/svg"><path d="M1.016 6.201a1.001 1.001 0 111.315-1.51l3.665 3.193c.833.726.918 1.99.193 2.824L1.016 6.2z"/><path d="M12.848.405a.874.874 0 011.317 1.148L6.19 10.708a1.747 1.747 0 01-.17-2.465l6.83-7.838z"/></symbol><symbol viewBox="0 0 22 22" id="faq-toggle" xmlns="http://www.w3.org/2000/svg"><path d="M10 1a1 1 0 112 0v20a1 1 0 11-2 0V1z"/><path d="M21 10a1 1 0 110 2H1a1 1 0 110-2h20z"/></symbol><symbol viewBox="0 0 39 41" id="fingerprint" xmlns="http://www.w3.org/2000/svg"><path clip-rule="evenodd" d="M17.718.02c-1.948.204-3.81.639-5.363 1.25-1.807.711-3.997 1.912-4.208 2.308-.128.238-.03.686.182.835.304.213.621.146 1.34-.283 3.43-2.044 6.986-2.956 10.585-2.714 3.892.26 7.349 1.668 10.286 4.188a16.928 16.928 0 015.23 8.112c.427 1.464.963 4.52 1.28 7.291.086.758.196 1.45.244 1.54.271.507 1.106.389 1.246-.177.09-.36-.528-4.982-.922-6.904-.428-2.085-.87-3.45-1.61-4.975-1.572-3.234-3.98-5.874-7.138-7.825C26.897 1.447 24.02.444 21.6.13c-.717-.093-3.338-.167-3.883-.11zm-.12 4.198a14.999 14.999 0 00-7.221 2.9c-1.71 1.273-3.223 3.094-4.21 5.066-1.07 2.136-1.542 4.146-1.542 6.565 0 1.455.118 2.33.551 4.084.62 2.507.65 2.842.699 7.808.022 2.224.056 4.126.077 4.226.104.5.795.682 1.15.303l.184-.196-.042-4.429c-.05-5.057-.088-5.52-.65-7.775-.456-1.835-.608-2.847-.606-4.04A13.229 13.229 0 0111.07 8.34a13.355 13.355 0 015.446-2.525c.593-.127 1.195-.182 2.322-.213 1.335-.036 1.62-.02 2.33.126 3.78.78 7.463 3.461 9.643 7.017 1.08 1.761 1.695 3.935 2.074 7.325.306 2.731.36 4.12.347 8.917l-.012 4.631.208.193c.354.33.824.238 1.069-.207.154-.281.163-9.107.01-11.131-.288-3.845-.812-6.734-1.542-8.505-1.44-3.49-4.307-6.516-7.881-8.315-1.363-.686-2.414-1.054-3.775-1.32-.767-.15-2.89-.216-3.712-.115zM5.706 5.56c-.242.052-.368.16-1.004.856-4.652 5.1-5.873 12.167-3.57 20.655.295 1.088.417 1.292.816 1.372.193.038.3.003.5-.166.317-.266.324-.465.052-1.441-.73-2.612-1.077-5.033-1.077-7.527 0-1.725.068-2.546.323-3.924a16.358 16.358 0 014.249-8.328c.49-.512.587-.76.44-1.114a.657.657 0 00-.73-.383zm12.732 2.783c-1.608.217-1.591.213-1.818.44-.287.287-.285.565.007.892l.231.258.79-.097c1.595-.198 2.914-.111 4.19.275 2.77.837 5.007 3.055 5.963 5.914.793 2.373 1.123 4.937 1.243 9.65.064 2.54-.003 8.746-.114 10.414-.055.844.034 1.139.398 1.311.307.146.548.088.801-.193.144-.159.167-.347.228-1.87.038-.932.072-3.983.076-6.78.006-4.635-.009-5.245-.167-6.909-.504-5.3-1.502-8.045-3.735-10.27-1.904-1.896-4.286-2.942-6.914-3.034-.516-.019-1.047-.019-1.179 0zm-5.345 1.96c-1.614 1.07-3.053 3.17-3.705 5.411-.602 2.069-.591 4.145.035 6.773.77 3.228 1.183 6.808 1.334 11.535.053 1.634.056 1.663.255 1.862.27.27.677.272.944.005.192-.193.196-.223.196-1.502-.001-3.518-.537-8.537-1.24-11.606-.56-2.444-.549-2.37-.555-3.793-.006-1.482.089-2.106.508-3.344.548-1.619 1.422-2.884 2.769-4.005.748-.623.853-.939.446-1.345-.297-.298-.527-.296-.988.01zm4.945 2.997a5.433 5.433 0 00-3.766 2.962c-.653 1.353-.752 2.654-.33 4.328.284 1.13.422 2.232.611 4.9.127 1.792.307 6.893.366 10.395.03 1.792.088 3.268.131 3.35.101.191.507.359.754.311a.718.718 0 00.354-.238c.15-.19.158-.331.158-2.453 0-3.355-.217-9.316-.443-12.221-.159-2.03-.316-3.238-.566-4.347-.244-1.08-.27-1.99-.075-2.664.673-2.33 3.005-3.577 5.28-2.825.925.306 1.895 1.13 2.322 1.971 1.065 2.101 1.675 5.91 1.937 12.095.048 1.118.069 1.247.233 1.438.242.281.673.287.97.013l.211-.196-.052-1.641c-.147-4.585-.65-8.311-1.466-10.851-.645-2.01-1.502-3.098-3.026-3.842-1.152-.563-2.445-.737-3.603-.485zm.648 5.014c-.248.295-.248.293-.054 1.132.344 1.481.703 3.954.923 6.349.294 3.209.378 5.465.375 10.154-.002 4.461.004 4.634.152 4.783.223.223.55.284.793.147.447-.25.441-.18.44-5.355 0-4.846-.082-6.922-.398-10.21-.28-2.918-.834-6.287-1.128-6.864-.233-.456-.777-.524-1.103-.136zm6.235 14.524c-.108.108-.2.261-.202.34-.045 1.12.031 5.73.097 5.938.16.498.77.595 1.142.182.207-.23.23-.795.152-3.8l-.064-2.47-.225-.193c-.294-.253-.645-.251-.9.003z"/></symbol><symbol viewBox="0 0 47 8" id="link-arrow" xmlns="http://www.w3.org/2000/svg"><path d="M46.354 4.354a.5.5 0 000-.708L43.172.464a.5.5 0 10-.707.708L45.293 4l-2.828 2.828a.5.5 0 10.707.708l3.182-3.182zM0 4.5h46v-1H0v1z"/></symbol><symbol viewBox="0 0 512 512" id="odnoklassniki" xmlns="http://www.w3.org/2000/svg"><path clip-rule="evenodd" d="M30 1.34C15.664 5.19 5.251 15.794 1.526 30.336.148 35.715.007 60.684.239 258.31L.5 480.243l2.264 5.5c4.811 11.685 14.638 20.826 25.905 24.097 7.234 2.101 447.428 2.101 454.662 0 11.267-3.271 21.094-12.412 25.905-24.097l2.264-5.5v-223.5c0-246.947.523-228.013-6.6-239.033-4.283-6.627-10.798-11.867-18.9-15.203L480.5.243 258 .053C64.49-.112 34.783.056 30 1.34zm247.835 123.658c10.611 3.767 17.606 8.244 26.161 16.745 12.755 12.675 19.343 28.716 19.303 47-.042 19.47-6.269 34.298-20.167 48.026-14.179 14.004-27.8 19.487-48.132 19.373-9.818-.055-12.67-.465-19.5-2.805-10.694-3.664-17.409-7.642-25.194-14.925-10.023-9.375-16.453-19.953-19.87-32.686-2.288-8.523-2.332-24.301-.092-32.983 5.105-19.792 19.222-36.817 37.464-45.18 10.276-4.712 16.286-5.8 30.192-5.467 10.423.249 13.719.731 19.835 2.902zm-32.416 31.506c-10.048 3.594-17.722 11.125-21.478 21.078-2.817 7.464-2.344 18.348 1.116 25.661 9.98 21.095 38.288 26.344 54.451 10.096 7.683-7.723 9.926-13.15 9.962-24.096.026-7.645-.36-9.828-2.564-14.5-7.301-15.477-26.1-23.742-41.487-18.239zm-51.826 105.535c22.464 11.266 40.709 15.921 62.407 15.921 21.829 0 40.223-4.721 62.496-16.039 9.981-5.071 11.616-5.595 17.582-5.635 5.621-.037 7.292.398 11.474 2.983 11.842 7.322 14.679 21.953 6.458 33.301-2.48 3.424-5.364 5.307-16.753 10.937-7.566 3.74-19.157 8.582-25.757 10.76-6.6 2.178-12.204 4.092-12.453 4.254-.25.162 7.721 8.491 17.712 18.509 11.469 11.499 18.733 19.584 19.704 21.931 2.994 7.241 1.479 16.971-3.603 23.136-6.141 7.45-18.36 9.941-27.15 5.536-2.54-1.273-13.231-11.076-26.951-24.712l-22.742-22.603-23.758 23.579c-25.369 25.176-26.884 26.268-36.259 26.127-12.463-.188-22-9.846-22-22.281 0-8.587 1.873-11.295 21.233-30.706 12.198-12.229 17.684-18.376 16.713-18.723-.795-.284-5.721-1.929-10.946-3.656-12.118-4.005-28.878-11.492-36.171-16.16-7.948-5.086-11.342-11.023-11.292-19.755.044-7.752 2.656-13.52 7.952-17.559 9.337-7.122 16.583-6.929 32.104.855z"/></symbol><symbol viewBox="0 0 30 31" id="ring" xmlns="http://www.w3.org/2000/svg"><path clip-rule="evenodd" d="M15.49.23c0 .032-.066.513-.147 1.067-.08.555-.147 1.055-.147 1.113 0 .084.086.117.455.176 1.801.287 3.961 1.137 5.527 2.175a14.111 14.111 0 012.372 1.921c2.067 2.043 3.425 4.514 4.053 7.377.111.504.145.586.242.578.291-.025 2.113-.335 2.15-.366.022-.02-.023-.328-.1-.685a17.187 17.187 0 00-9.193-11.778C19.215 1.076 17.715.57 16.31.33c-.306-.053-.616-.11-.688-.128-.073-.018-.132-.005-.132.027zM4.597 3.115c-.565.118-.824.319-2.331 1.812C1.463 5.722.718 6.51.609 6.677c-1.054 1.621-.738 4.309.93 7.926 1.867 4.048 5.227 8.134 9.08 11.043 2.27 1.713 4.975 3.188 7.218 3.936 1.853.619 3.596.793 4.706.472.83-.24 1.015-.38 2.669-2.026 1.392-1.386 1.555-1.568 1.727-1.937.162-.347.19-.473.19-.854 0-.38-.028-.508-.19-.854-.175-.377-.349-.567-2.314-2.526-1.73-1.727-2.183-2.148-2.446-2.273-.445-.213-.866-.284-1.247-.212-.633.119-.869.295-2.34 1.743-.762.75-1.43 1.364-1.485 1.364-.143 0-1.525-.713-2.059-1.06-2.073-1.354-4.428-3.648-5.935-5.78-.518-.734-.76-1.14-1.107-1.857-.214-.443-.266-.605-.235-.733.027-.105.519-.644 1.384-1.515 1.2-1.208 1.362-1.394 1.524-1.75.307-.679.242-1.325-.2-1.99-.113-.169-1.11-1.21-2.218-2.312C6.454 3.68 6.21 3.458 5.867 3.3c-.42-.193-.894-.262-1.27-.184zm10.581 3.22c-.08.426-.295 2.12-.27 2.144.015.015.238.071.495.124 3.008.62 5.41 2.962 6.132 5.976.06.254.118.468.128.476.027.022 2.217-.36 2.25-.393.036-.037-.065-.534-.218-1.073-1.059-3.736-4.206-6.603-8.038-7.322l-.45-.084-.029.153z"/></symbol><symbol viewBox="0 0 18 15" id="select-chevron" xmlns="http://www.w3.org/2000/svg"><path d="M9 15L.34 0h17.32L9 15z"/></symbol><symbol viewBox="0 0 15 18" id="slider-arrow" xmlns="http://www.w3.org/2000/svg"><path d="M15 9L0 17.66V.34L15 9z"/></symbol><symbol viewBox="0 0 512 512" id="vk" xmlns="http://www.w3.org/2000/svg"><path clip-rule="evenodd" d="M59.387.636C44.791 2.803 32.213 9.335 20.951 20.598c-9.412 9.41-14.088 17.17-18.109 30.049L.5 58.147v395l2.342 7.5c4.021 12.879 8.697 20.638 18.109 30.049 9.411 9.412 17.17 14.088 30.049 18.109l7.5 2.342h395l7.5-2.342c12.879-4.021 20.638-8.697 30.049-18.109 9.412-9.411 14.088-17.17 18.109-30.049l2.342-7.5v-395l-2.342-7.5c-4.021-12.88-8.697-20.638-18.109-30.05-9.185-9.185-16.706-13.792-29.549-18.101l-7-2.35-195-.134C152.25-.062 62.199.219 59.387.636zm210.727 164.02c6.26 1.174 9.597 3.356 12.379 8.096 1.884 3.21 1.993 5.245 2 37.395.008 38.111.255 39.73 6.148 40.305 2.749.268 3.871-.519 9.279-6.5 3.383-3.743 9.053-10.855 12.598-15.805 6.481-9.049 19.186-32.832 23.503-44 3.266-8.446 5.478-11.267 9.772-12.459 5.014-1.393 55.657-1.352 62.194.05 9.219 1.977 10.237 8.097 3.691 22.193-3.964 8.538-9.924 17.404-28.614 42.562C369.016 255.404 364 263.394 364 266.862c0 3.521 2.169 6.185 18.96 23.285 22.973 23.397 33.04 37.18 33.04 45.238 0 4.892-2.219 8.004-7.383 10.348-3.666 1.665-6.862 1.872-29.157 1.892-27.361.024-33.44-.811-40.96-5.628-2.2-1.409-11.425-10.118-20.5-19.353-17.243-17.548-19.698-19.211-24.768-16.778-3.471 1.665-5.424 7.039-8.053 22.156-3.177 18.274-4.624 19.157-30.07 18.341-12.072-.387-18.875-1.103-24.906-2.621-26.577-6.687-50.111-22.946-69.877-48.274-19.13-24.514-36.552-53.91-54.418-91.821-10.232-21.711-11.668-27.24-8.024-30.884 2.045-2.045 2.975-2.116 27.866-2.11 14.846.003 27.346.448 29.519 1.052 5.279 1.466 9.817 6.494 12.652 14.018 6.792 18.026 26.626 51.295 36.197 60.715 11.93 11.743 15.698 4.716 15.814-29.492.037-11.11-.417-22.463-1.01-25.228-1.35-6.294-5.135-10.477-10.983-12.138-6.15-1.746-7.589-3.21-6.185-6.293 1.44-3.16 6.815-7.206 11.246-8.465 4.643-1.319 50.252-1.451 57.114-.166z"/></symbol><symbol viewBox="0 0 512 512" id="whatsapp" xmlns="http://www.w3.org/2000/svg"><path clip-rule="evenodd" d="M57.486 1.146C36.23 5.036 17.292 19.106 8.117 37.822-.196 54.782.5 34.872.5 255.7c0 220.88-.703 200.84 7.645 218 5.798 11.918 17.831 23.928 29.901 29.845C55.093 511.902 35.095 511.2 256 511.2c220.902 0 200.859.704 218-7.655 12.027-5.866 23.979-17.818 29.845-29.845 8.359-17.141 7.655 2.902 7.655-218s.704-200.859-7.655-218C497.977 25.668 486.025 13.717 474 7.86 456.79-.523 477.502.231 259 .036 104.42-.1 63.06.127 57.486 1.146zM288.159 98.62c76.997 16.612 130.008 84.713 126.497 162.506-.349 7.741-1.506 18.417-2.571 23.725-8.674 43.233-35.611 82.153-72.585 104.874-43.926 26.993-98.886 31.178-145.506 11.078l-8.855-3.817-39.32 9.333c-21.625 5.133-40.556 9.344-42.069 9.357-2.648.023-6.75-2.968-6.75-4.922 0-.521 3.865-19.695 8.589-42.61l8.589-41.663-3.487-7.641c-14.255-31.233-17.444-69.434-8.652-103.64 15.166-59.001 62.851-104.584 121.813-116.444 14.077-2.832 14.884-2.89 35.648-2.54 14.554.245 21.26.808 28.659 2.404zm-52.43 33.592c-50.737 8.53-90.728 47.305-101.231 98.153-5.444 26.357-1.576 53.539 11.573 81.335l4.968 10.5-4.957 23.979c-2.726 13.189-4.777 24.16-4.557 24.38.22.219 11.162-2.166 24.317-5.301l23.916-5.699 9.175 4.607c19.104 9.595 35.924 13.534 57.791 13.534 34.55 0 64.66-12.979 89.052-38.387 16.781-17.479 27.283-38.17 32.358-63.756 1.919-9.672 1.61-34.623-.555-44.817-11.04-51.988-50.575-90.219-101.907-98.544-11.015-1.787-29.266-1.779-39.943.016zm-24.937 47.966c3.979 3.348 17.454 33.411 17.383 38.78-.039 2.946-1.273 5.432-5.708 11.5-5.032 6.885-5.603 8.155-5.16 11.475.676 5.063 5.457 11.275 18.347 23.838 11.611 11.317 24.66 21.534 32.718 25.618 7.268 3.682 10.234 2.868 18.721-5.138 6.286-5.93 7.343-6.551 11.153-6.551 5.482 0 36.176 8.758 39.296 11.212 1.326 1.042 2.889 3.676 3.476 5.853.891 3.31.75 4.652-.863 8.197-5.02 11.035-19.187 23.507-29.121 25.637-7.925 1.7-21.538 1.326-30.534-.837-22.063-5.307-43.611-18.859-67.331-42.343-18.002-17.825-28.232-32.661-33.902-49.166-2.421-7.047-2.767-9.552-2.767-20.053 0-11.073.213-12.433 2.756-17.612 2.993-6.094 13.379-18.084 18.225-21.039 4.331-2.641 9.727-2.386 13.311.629z"/></symbol></svg>